<svg width="101" height="102" viewBox="0 0 101 102" fill="none" xmlns="http://www.w3.org/2000/svg">
<path d="M101 101C95.1125 100.777 89.2249 100.562 83.3373 100.352C56.2351 99.3893 29.1309 98.5674 2.02444 97.8868L3.46509 100.176C14.5442 76.7657 25.5062 53.3019 36.3512 29.784C40.3395 21.1352 44.312 12.479 48.2687 3.81562L44.8006 3.95166C56.5435 24.7423 68.382 45.4794 80.3161 66.163L81.5 64.1432C61.8902 64.3949 42.2803 64.7205 22.6705 65.12C16.7803 65.24 10.8902 65.3667 5 65.5C10.8902 65.6333 16.7803 65.76 22.6705 65.88C42.2803 66.2795 61.8902 66.6051 81.5 66.8568C82.6652 66.8436 83.2647 65.8472 82.6839 64.837C71.2846 43.8539 59.7898 22.9244 48.1994 2.04834C47.3172 0.483655 45.4787 0.551005 44.7313 2.18438C40.7113 10.8186 36.7072 19.4602 32.7188 28.109C21.8738 51.6268 11.1459 75.1986 0.53491 98.8244C0.00118148 100.011 0.674767 101.106 1.97556 101.113C29.0902 101.254 56.2069 101.254 83.3258 101.112C89.2171 101.081 95.1085 101.044 101 101Z" fill="url(#paint0_linear_10_24)"/>
<defs>
<linearGradient id="paint0_linear_10_24" x1="50.5" y1="-1.95806e-07" x2="50.5" y2="101" gradientUnits="userSpaceOnUse">
<stop stop-color="#8C74EA"/>
<stop offset="1" stop-color="#2F0B6C"/>
</linearGradient>
</defs>
</svg>
